# xmcd
#
# Track frame offsets: 
#        150
#        8430
#        17475
#        28015
#        37980
#        52730
#        61775
#        69405
#        93710
#        102370
#        115960
#        125220
#        136075
#        143205
#
# Disc length: 2044 seconds
#
# Revision: 0
# Processed by: cddbd v1.5.1PL2 Copyright (c) Steve Scherf et al.
# Submitted via: ExactAudioCopy v0.95a5
#
DISCID=b207fa0e
DTITLE=The Ebony Hillbillies - Sabrina's Holiday
DYEAR=2004
DGENRE=Bluegrass
TTITLE0=Bonaparte's Retreat
TTITLE1=Cotton-Eyed Joe
TTITLE2=The Old Carpenter's Waltz
TTITLE3=Hell Among the Yearlings
TTITLE4=Liza Jane
TTITLE5=Sugar in the Gourd
TTITLE6=Soldier's Joy
TTITLE7=Shenandoah
TTITLE8=Chicken Reel
TTITLE9=Cluck of Hen
TTITLE10=Rock Along John
TTITLE11=Oh Susanna
TTITLE12=Granny Will Your Dog Bite
TTITLE13=Sabrina's Holiday
EXTD=
EXTT0=
EXTT1=
EXTT2=
EXTT3=
EXTT4=
EXTT5=
EXTT6=
EXTT7=
EXTT8=
EXTT9=
EXTT10=
EXTT11=
EXTT12=
EXTT13=
PLAYORDER=
